<svg width="1281" height="460" viewBox="0 0 1281 460" fill="none" xmlns="http://www.w3.org/2000/svg">
<path fill-rule="evenodd" clip-rule="evenodd" d="M634.071 12.5265C628.633 29.3545 622.993 40.6385 617.478 45.7225C611.779 50.9745 602.353 55.5945 586.869 60.7245C579.935 63.0215 573.41 65.5605 572.369 66.3665C570.517 67.7995 570.52 67.8595 572.476 69.0755C573.576 69.7605 581.001 72.5845 588.976 75.3525C604.98 80.9075 613.294 85.1985 618.558 90.6185C623.437 95.6415 629.308 107.903 634.079 123.037C637.632 134.308 638.402 135.907 640.146 135.638C641.767 135.388 643.071 132.514 647.067 120.375C656.549 91.5795 663.052 84.8285 689.976 75.8305C708.294 69.7085 708.114 69.7925 707.782 67.6005C707.534 65.9595 704.652 64.6065 692.476 60.4155C674.876 54.3575 666.254 49.9875 661.483 44.7065C656.571 39.2695 651.357 28.3745 646.469 13.3305C643.043 2.78747 641.863 0.272469 640.227 0.0264694C638.462 -0.239531 637.689 1.33047 634.071 12.5265ZM522.476 78.3325C521.926 78.5225 514.501 80.5435 505.976 82.8245C455.008 96.4635 423.073 110.498 400.699 129.091C394.44 134.293 393.876 135.497 395.492 140.199C398.04 147.611 407.406 154.572 421.994 159.896C435.187 164.711 457.73 167.655 459.498 164.795C459.868 164.196 456.732 162.227 452.061 160.127C445.198 157.04 443.805 155.998 442.79 153.191C441.765 150.358 441.23 149.966 439.036 150.44C434.702 151.374 438.643 149.161 447.334 145.779C467.526 137.922 497.584 131.65 530.976 128.325C555.443 125.889 569.976 122.937 569.976 120.402C569.976 116.178 567.527 112.767 562.425 109.888C556.54 106.567 551.229 100.472 544.819 89.6825C539.01 79.9055 536.223 77.8115 529.149 77.9095C526.029 77.9525 523.026 78.1435 522.476 78.3325ZM742.655 79.8685C741.23 80.9885 737.701 85.8265 734.812 90.6185C728.475 101.13 722.362 107.901 717.043 110.3C714.112 111.622 712.691 113.086 711.534 115.976C710.677 118.118 709.976 120.263 709.976 120.743C709.976 122.946 721.675 125.181 749.586 128.31C789.169 132.749 815.475 138.42 835.998 146.937C841.519 149.228 845.86 151.279 845.645 151.494C845.43 151.71 844.037 151.423 842.55 150.858C838.635 149.37 838.29 149.51 837.618 152.868C837.085 155.535 835.963 156.388 828.425 159.853C823.59 162.077 820.114 164.244 820.467 164.815C821.976 167.257 841.742 165.122 854.435 161.147C870.644 156.071 882.741 147.317 884.925 139.083C886.16 134.426 886.524 134.964 876.476 126.593C870.941 121.982 856.564 113.111 846.476 108.081C828.493 99.1165 798.03 88.6705 767.092 80.8595C752.752 77.2395 746.328 76.9785 742.655 79.8685ZM99.6306 89.4275C53.5676 97.7495 15.8786 135.236 3.34658 185.195C-0.169422 199.214 -1.08642 225.716 1.41858 240.954C8.40758 283.472 35.5656 320.646 72.1706 337.8C93.1656 347.639 113.843 350.566 142.552 347.764C174.136 344.681 203.868 333.669 219.985 319.084L225.976 313.662V287.295C225.976 272.72 226.444 258.747 227.022 256.051C228.854 247.511 233.695 243.276 247.226 238.383C250.644 237.146 251.976 236.127 251.976 234.747C251.976 232.878 250.389 232.83 187.945 232.83C130.551 232.83 123.85 232.994 123.308 234.408C122.308 237.012 125.253 238.872 134.497 241.475C145.761 244.648 152.091 247.892 157.43 253.231C164.706 260.508 165.236 263.503 164.748 294.625C164.271 325.135 163.697 328.22 157.976 331.078C148.94 335.592 128.728 331.499 115.344 322.446C108.735 317.975 99.0486 307.697 93.2386 298.991C60.5566 250.02 66.6386 166.961 105.73 128.379C125.927 108.445 149.661 104.086 172.376 116.138C184.034 122.324 199.01 139.042 207.037 154.83C208.295 157.305 211.384 165.145 213.9 172.253C216.417 179.361 218.987 185.344 219.612 185.548C221.648 186.216 223.009 179.666 224.117 163.855C225.153 149.087 224.762 123.342 223.416 117.699C222.847 115.312 222.215 115.004 216.632 114.39C205.839 113.204 198.876 110.884 181.976 102.843C164.298 94.4325 156.611 91.8025 142.595 89.3715C131.621 87.4675 110.325 87.4955 99.6306 89.4275ZM1222.85 113.76C1193.91 120.247 1169.72 125.868 1169.1 126.252C1166.5 127.86 1168.41 129.574 1175.23 131.76C1180.89 133.577 1183.49 135.094 1187.11 138.707C1193.91 145.491 1194.05 146.783 1193.74 197.664L1193.48 240.998L1151.48 205.747C1128.38 186.359 1102.9 164.956 1094.86 158.185L1080.24 145.873L1056.36 149.354C1022.92 154.228 1025.8 153.582 1026.16 156.137C1026.47 158.269 1029.16 159.531 1037.03 161.222C1041.33 162.144 1046.35 166.177 1048.85 170.709L1051.22 175.01L1051.04 242.93C1050.92 289.372 1050.52 311.874 1049.76 314.089C1047.09 321.941 1041.93 327.127 1030.99 332.963C1028.52 334.279 1026.35 336.138 1026.16 337.093C1025.85 338.726 1029.2 338.83 1081.9 338.83C1135.14 338.83 1137.98 338.739 1137.98 337.038C1137.98 335.858 1136.08 334.316 1132.41 332.517C1124.27 328.524 1117.46 321.735 1115 315.162C1113.03 309.893 1112.97 307.942 1113.22 257.912L1113.48 206.117L1153.57 239.874L1193.67 273.631L1194.26 282.98C1195.07 295.691 1197.99 306.386 1203.98 318.528C1207.98 326.645 1210.65 330.469 1217.09 337.266C1221.53 341.963 1228.34 347.916 1232.22 350.495C1241.2 356.462 1250.78 360.441 1252.92 359.091C1254.31 358.219 1254.53 345.849 1254.98 245.721L1255.48 133.33L1257.74 128.41C1260.93 121.502 1266.27 115.325 1273.65 110.018C1280.24 105.277 1282 101.769 1277.73 101.897C1276.49 101.934 1251.8 107.273 1222.85 113.76ZM625.476 146.477C611.021 148.803 599.213 154.547 589.866 163.799C579.31 174.25 574.966 184.898 574.991 200.262C575.009 211.555 576.988 220.157 581.575 228.885C588.352 241.783 591.47 244.457 632.615 272.655C646.442 282.13 659.848 291.726 662.407 293.978C668.712 299.528 671.387 304.894 671.309 311.83C671.204 321.004 669.406 325.531 663.531 331.406C656.735 338.201 650.136 340.391 639.226 339.468C623.907 338.173 609.309 331.168 597.473 319.433C589.668 311.693 585.038 305.265 577.071 291.11C574.218 286.039 571.467 281.633 570.959 281.319C569.149 280.201 568.478 286.572 568.587 303.83C568.68 318.359 569.064 322.688 570.852 329.33C573.131 337.798 576.721 345.819 579.937 349.631C581.826 351.869 581.967 351.886 585.132 350.249C590.349 347.552 599.351 347.376 607.976 349.803C623.196 354.087 631.518 355.071 647.976 354.533C657.991 354.206 665.599 353.433 669.476 352.349C690.881 346.361 704.963 331.555 709.465 310.301C712.728 294.894 710.666 274.909 704.603 263.176C697.931 250.266 690.119 243.268 657.964 221.392C615.077 192.215 613.749 191.092 611.455 182.058C609.233 173.307 613.107 164.868 621.284 160.648C624.204 159.141 627.913 158.351 633.507 158.043C652.448 157.003 666.052 164.863 676.42 182.839C680.322 189.603 681.727 191.07 688.652 195.609C696.037 200.45 700.354 202.635 705.858 204.319C708.155 205.023 708.214 204.912 707.523 201.189C705.57 190.679 692.492 161.691 684.455 150.059C684.352 149.91 682.065 150.259 679.372 150.835C675.28 151.709 672.259 151.46 660.976 149.316C647.8 146.812 631.496 145.508 625.476 146.477ZM242.498 173.021C249.916 178.972 254.697 184.564 256.548 189.455C258.182 193.772 258.455 198.647 258.935 232.044L259.476 269.758L265.976 264.177C273.826 257.436 287.584 248.221 294.743 244.909L299.976 242.488V221.305C299.976 200.206 299.986 200.112 302.428 197.476L304.881 194.83H323.391C339.9 194.83 342.527 195.063 347.688 196.989C357.572 200.675 369.226 214.356 373.374 227.143C373.709 228.176 374.451 228.654 375.099 228.254C375.897 227.761 376.072 223.942 375.687 215.441C375.177 204.16 372.779 192.236 369.079 182.58L368.026 179.83H344.734C306.685 179.83 285.897 178.011 258.71 172.301C252.239 170.942 245.049 169.83 242.732 169.83H238.52L242.498 173.021ZM386.976 181.735C386.976 182.995 388.796 184.666 392.359 186.677C396.409 188.963 398.266 190.798 399.859 194.088C401.944 198.395 401.976 199.382 401.976 259.434V320.406L399.726 324.868C398.081 328.13 396.073 330.137 392.259 332.33C389.156 334.115 387.029 336.039 387.009 337.08C386.978 338.714 389.32 338.83 422.476 338.83C457.279 338.83 457.976 338.791 457.976 336.835C457.976 335.445 456.585 334.186 453.391 332.685C450.506 331.329 447.817 329.037 446.141 326.504L443.476 322.478L443.197 275.513L442.918 228.547L462 252.938C472.495 266.354 488.595 286.966 497.779 298.743C528.341 337.936 533.849 344.566 538.962 348.32C546.849 354.109 558.976 357.969 558.976 354.691C558.976 354.064 557.659 351.411 556.049 348.795C552.617 343.216 549.446 333.151 548.026 323.325C547.439 319.259 547.007 291.923 546.996 258.048C546.979 207.674 547.186 199.263 548.524 196.062C550.498 191.336 553.497 188.138 558.226 185.712C560.649 184.47 561.976 183.089 561.976 181.81C561.976 179.874 561.188 179.83 526.476 179.83C492.03 179.83 490.976 179.888 490.976 181.767C490.976 183.074 492.668 184.618 496.181 186.517C500.092 188.63 501.961 190.452 503.693 193.841C505.999 198.351 506 198.36 505.738 237.078L505.476 275.805L467.997 227.817L430.518 179.83H408.747C388.006 179.83 386.976 179.92 386.976 181.735ZM715.976 181.175C715.976 182.866 718.797 185.387 721.664 186.26C724.909 187.247 729.741 193.245 730.97 197.809C731.704 200.533 731.944 221.402 731.72 263.072C731.409 320.907 731.281 324.637 729.431 329.83C727.036 336.55 722.789 342.733 716.064 349.292C713.266 352.022 710.976 354.609 710.976 355.042C710.976 356.293 718.925 355.931 725.476 354.382C728.776 353.601 737.326 350.724 744.476 347.988C758.307 342.696 767.697 340.411 780.226 339.289C788.904 338.512 790.254 336.97 784.828 334.033C773.342 327.817 771.723 323.182 772.163 297.767L772.476 279.653L775.282 277.241C778.087 274.83 778.089 274.83 803.282 274.844C817.139 274.851 829.457 275.121 830.657 275.442C834.398 276.446 835.619 281.869 835.873 298.612C836.168 318.079 835.022 324.066 830.091 328.818C828.087 330.75 824.991 333.097 823.211 334.033C821.432 334.97 819.976 336.433 819.976 337.283C819.976 338.65 824.096 338.83 855.309 338.83C874.743 338.83 890.912 338.561 891.24 338.232C892.524 336.949 890.555 334.726 885.885 332.184C882.114 330.132 880.432 328.38 878.49 324.482L875.976 319.437L875.982 260.384C875.985 222.847 876.363 199.975 877.02 197.611C878.329 192.899 882.473 187.938 886.509 186.252C890.202 184.709 892.406 182.335 891.503 180.874C891.075 180.181 878.957 179.83 855.417 179.83C825.006 179.83 819.976 180.037 819.976 181.291C819.976 183.105 821.372 184.371 826.473 187.185C828.959 188.557 831.416 191.08 832.973 193.86C835.425 198.238 835.476 198.766 835.476 219.557V240.785L832.704 243.557L829.932 246.33H803.977H778.023L775.249 243.557L772.476 240.785V219.557C772.476 198.766 772.527 198.238 774.979 193.86C776.536 191.08 778.993 188.557 781.479 187.185C786.58 184.371 787.976 183.105 787.976 181.291C787.976 180.037 782.877 179.83 751.976 179.83C722.486 179.83 715.976 180.073 715.976 181.175ZM914.976 181.79C914.976 183.328 916.366 184.179 921.443 185.747C929.663 188.286 932.819 189.949 936.134 193.491C941.016 198.707 941.119 200.218 940.786 261.904L940.476 319.479L938.121 322.904C934.734 327.831 931.46 329.976 922.987 332.818C917.899 334.525 915.39 335.894 915.162 337.09C914.844 338.753 917.438 338.835 962.151 338.59C1003.43 338.363 1009.48 338.139 1009.48 336.83C1009.48 335.847 1006.77 334.425 1001.63 332.705C993.191 329.88 989.78 327.787 986.538 323.446C984.518 320.742 984.47 319.477 984.182 262.007C984.021 229.735 984.158 201.842 984.488 200.024C985.487 194.518 991.691 189.27 1000.18 186.747C1007.88 184.46 1010.65 182.734 1009.53 180.926C1009.06 180.157 994.872 179.83 961.917 179.83C915.963 179.83 914.976 179.871 914.976 181.79ZM332.976 237.494C321.528 239.485 303.329 245.63 291.871 251.374C271.296 261.688 254.245 276.18 243.089 292.834C236.944 302.008 232.42 310.607 233.284 311.472C233.58 311.767 237.119 310.008 241.149 307.562C245.179 305.116 250.839 301.918 253.726 300.456L258.976 297.796L258.964 304.063C258.938 317.685 254.539 326.417 241.689 338.355C237.264 342.467 233.905 346.093 234.226 346.414C234.547 346.734 242.159 345.616 251.143 343.927C273.906 339.65 287.257 338.83 334.172 338.83H375.078L376.514 335.394C380.43 326.02 383.149 312.236 383.312 300.927C383.5 287.858 382.409 286.024 379.134 293.904C376.299 300.727 368.97 310.874 364.084 314.745C361.919 316.459 357.522 319.092 354.312 320.596C348.621 323.262 347.949 323.338 327.235 323.666L305.994 324.002L302.985 320.993L299.976 317.984V299.987V281.99L307.226 280.334C320.537 277.294 340.286 274.84 359.976 273.781C370.701 273.203 379.817 272.64 380.233 272.528C380.65 272.417 380.172 270.751 379.173 268.828C377.781 266.148 375.52 264.394 369.513 261.33C359.597 256.273 358.431 254.544 358.63 245.199C358.783 237.974 358.777 237.956 355.731 236.894C351.655 235.474 343.334 235.693 332.976 237.494ZM911.476 236.475C908.081 237.407 907.646 238.521 907.878 245.684C908.089 252.184 907.907 252.839 904.948 256.209C903.084 258.332 900.248 260.218 898.015 260.819C893.312 262.086 889.408 265.094 887.382 269.011C886.528 270.664 885.974 272.135 886.152 272.28C886.33 272.425 895.251 273.067 905.976 273.706C916.701 274.345 928.063 275.147 931.226 275.489L936.976 276.11V257.086V238.063L934.226 237.469C930.041 236.566 913.74 235.853 911.476 236.475ZM986.976 273.691V288.553L994.726 291.772C1003.28 295.327 1018.32 303.105 1027.24 308.589C1030.41 310.538 1033.28 311.862 1033.61 311.53C1034.41 310.728 1027.9 298.944 1022.18 290.83C1015.72 281.678 1005.81 271.532 996.639 264.683C992.329 261.464 988.392 258.83 987.889 258.83C987.379 258.83 986.976 265.39 986.976 273.691ZM689.976 388.177C689.976 388.402 690.6 390.103 691.363 391.958C692.728 395.276 692.551 395.771 680.435 422.689C673.662 437.736 667.172 451.057 666.013 452.291C664.853 453.525 662.167 455.055 660.044 455.692C657.92 456.328 655.926 457.519 655.611 458.339C655.119 459.622 657.261 459.83 670.948 459.83C680.076 459.83 687.112 459.419 687.454 458.866C687.781 458.336 685.895 456.874 683.263 455.616C677.363 452.798 676.845 450.445 680.369 442.477L682.866 436.83L697.171 436.841L711.476 436.852L714.315 443.498C717.569 451.115 717.064 454.089 712.312 455.282C709.203 456.062 706.976 457.594 706.976 458.952C706.976 459.435 717.551 459.83 730.476 459.83C750.411 459.83 753.976 459.609 753.976 458.37C753.976 457.536 752.278 456.402 750.012 455.723C747.831 455.069 745.019 453.444 743.762 452.11C742.505 450.777 735.342 435.881 727.845 419.008L714.215 388.33L702.095 388.049C695.43 387.895 689.976 387.952 689.976 388.177ZM378.726 389.562C368.967 389.746 361.976 390.277 361.976 390.834C361.976 391.359 363.664 392.651 365.726 393.703C373.558 397.7 373.442 397.276 373.759 423.183C374.026 444.963 373.923 446.523 372.016 449.593C370.902 451.388 368.299 453.58 366.233 454.464C360.261 457.021 359.618 457.404 359.202 458.651C358.912 459.522 362.836 459.83 374.226 459.83C382.705 459.83 389.934 459.539 390.29 459.183C390.646 458.827 388.921 456.658 386.457 454.363L381.976 450.19L382.058 429.76L382.14 409.33L384.735 414.83C386.162 417.855 387.398 420.555 387.481 420.83C387.564 421.105 388.846 424.03 390.33 427.33C391.814 430.63 395.604 439.144 398.752 446.249C401.9 453.354 404.998 459.341 405.637 459.553C407.902 460.303 410.932 455.396 418.35 438.964C422.48 429.815 427.202 419.405 428.844 415.83L431.828 409.33L431.896 427.33C431.977 448.424 431.237 452.153 426.409 455.002C424.521 456.116 422.976 457.658 422.976 458.429C422.976 459.591 426.982 459.83 446.417 459.83C460.798 459.83 470.094 459.448 470.469 458.841C470.806 458.296 468.662 456.782 465.706 455.474C455.991 451.178 455.976 451.131 455.976 424.599C455.976 398.713 456.298 397.341 463.089 394.279C465.162 393.344 467.096 391.961 467.386 391.205C467.821 390.069 464.744 389.832 449.695 389.843L431.476 389.856L423.492 407.902C416.461 423.795 415.389 425.673 414.513 423.639C404.288 399.918 398.987 389.326 397.323 389.288C396.307 389.265 387.938 389.388 378.726 389.562ZM253.976 390.843C253.976 391.4 256.389 392.922 259.338 394.227C268.071 398.089 267.976 397.749 267.976 424.976V448.676L265.092 451.56C263.506 453.146 260.356 454.999 258.092 455.677C255.713 456.39 253.976 457.527 253.976 458.37C253.976 459.613 257.911 459.83 280.476 459.83C302.292 459.83 306.976 459.587 306.976 458.455C306.976 457.699 304.657 456.237 301.823 455.205C292.819 451.929 292.69 451.509 292.575 425.108C292.46 398.573 292.56 398.231 301.559 394.251C304.538 392.933 306.976 391.4 306.976 390.843C306.976 390.185 297.696 389.83 280.476 389.83C263.256 389.83 253.976 390.185 253.976 390.843ZM524.976 390.573C524.976 391.045 526.98 392.405 529.43 393.595C537.323 397.43 537.476 398.014 537.476 424.33C537.476 450.345 537.148 451.691 530.148 454.438C525.063 456.433 523.657 457.286 523.202 458.651C522.907 459.536 529.43 459.83 549.393 459.83C572.031 459.83 575.976 459.613 575.976 458.37C575.976 457.527 574.239 456.39 571.86 455.677C569.596 454.999 566.446 453.146 564.86 451.56C562.167 448.867 561.976 448.152 561.976 440.753V432.83H566.792C583.616 432.83 597.099 425.516 599.977 414.828C602.242 406.415 597.643 398.762 587.246 393.64L580.527 390.33L552.751 390.022C537.475 389.853 524.976 390.101 524.976 390.573ZM835.976 391.706C832.951 392.678 829.379 394.065 828.038 394.788C823.501 397.233 815.791 405.264 813.135 410.31C810.851 414.652 810.493 416.546 810.485 424.33C810.478 431.662 810.894 434.178 812.731 437.906C820.012 452.682 835.251 460.658 854.15 459.583C868.67 458.757 880.651 451.484 884.623 441.084C886.418 436.385 885.668 434.153 883.363 437.332C877.062 446.022 870.545 449.774 861.694 449.808C851.873 449.845 844.263 445.449 839.729 437.117C834.216 426.989 835.355 414.42 842.547 406.019C852.937 393.879 868.72 395.28 878.261 409.187L882.476 415.33L882.771 406.83C883.205 394.339 882.921 393.684 877.195 393.962C874.491 394.093 869.548 393.259 865.621 392.01C856.966 389.258 844.005 389.125 835.976 391.706ZM946.606 392.08C946.275 393.318 945.997 398.3 945.99 403.153C945.978 410.892 946.183 411.937 947.661 411.652C948.587 411.474 950.502 409.35 951.916 406.933C955.76 400.359 958.631 398.659 966.885 398.069L973.976 397.561V422.245C973.976 441.899 973.679 447.503 972.52 449.745C971.16 452.375 967.516 454.691 962.226 456.286C960.989 456.659 959.976 457.609 959.976 458.397C959.976 459.605 964.152 459.83 986.559 459.83C1007.38 459.83 1013.05 459.559 1012.73 458.58C1012.51 457.893 1011.01 456.752 1009.4 456.045C997.932 451.01 997.979 451.153 997.978 421.446L997.976 397.561L1004.73 398.045C1013.8 398.694 1017.37 400.699 1020.52 406.919C1024.29 414.363 1025.43 412.972 1025.76 400.499L1026.04 389.83H986.626H947.209L946.606 392.08ZM569.964 399.438C578.055 406.748 577.263 418.045 568.242 423.993C566.721 424.996 564.688 425.82 563.726 425.823C562.137 425.829 561.976 424.452 561.976 410.83C561.976 396.504 562.066 395.83 563.973 395.83C565.072 395.83 567.767 397.453 569.964 399.438ZM702.871 417.763C705.679 424.05 707.976 429.338 707.976 429.513C707.976 429.687 703.052 429.83 697.033 429.83H686.09L690.633 419.58C695.798 407.928 697.007 405.519 697.452 405.994C697.625 406.179 700.063 411.475 702.871 417.763Z" fill="#212529"/>
</svg>
